<?xml version="1.0" encoding="UTF-8" ?>
<svg version="1.1" width="16" height="16" xmlns="http://www.w3.org/2000/svg" shape-rendering="crispEdges">
<rect x="7" y="1" width="1" height="3" fill="#433D30" />
<rect x="6" y="3" width="1" height="1" fill="#6C7741" />
<rect x="8" y="3" width="1" height="1" fill="#6C7741" />
<rect x="5" y="4" width="1" height="2" fill="#6C7741" />
<rect x="6" y="4" width="3" height="2" fill="#AABA5A" />
<rect x="9" y="4" width="1" height="2" fill="#6C7741" />
<rect x="4" y="6" width="1" height="3" fill="#6C7741" />
<rect x="5" y="6" width="1" height="3" fill="#A2B152" />
<rect x="6" y="6" width="2" height="7" fill="#AABA5A" />
<rect x="8" y="6" width="1" height="3" fill="#C2C86B" />
<rect x="9" y="6" width="1" height="2" fill="#A2B152" />
<rect x="10" y="6" width="1" height="2" fill="#6C7741" />
<rect x="9" y="8" width="1" height="2" fill="#C2C86B" />
<rect x="10" y="8" width="1" height="4" fill="#A2B152" />
<rect x="11" y="8" width="1" height="4" fill="#6C7741" />
<rect x="3" y="9" width="1" height="2" fill="#6C7741" />
<rect x="4" y="9" width="1" height="2" fill="#A2B152" />
<rect x="5" y="9" width="1" height="2" fill="#AABA5A" />
<rect x="8" y="9" width="1" height="4" fill="#AABA5A" />
<rect x="9" y="10" width="1" height="2" fill="#AABA5A" />
<rect x="4" y="11" width="1" height="2" fill="#6C7741" />
<rect x="5" y="11" width="1" height="2" fill="#A2B152" />
<rect x="9" y="12" width="1" height="1" fill="#A2B152" />
<rect x="10" y="12" width="1" height="1" fill="#6C7741" />
<rect x="5" y="13" width="1" height="1" fill="#6C7741" />
<rect x="6" y="13" width="3" height="1" fill="#A2B152" />
<rect x="9" y="13" width="1" height="1" fill="#6C7741" />
<rect x="6" y="14" width="3" height="1" fill="#6C7741" />
</svg>